<svg xmlns="http://www.w3.org/2000/svg" viewBox="0 0 360 360" aria-hidden="true">
  <g fill="none" stroke="#8f3f5a" stroke-width="3" opacity=".32">
    <path d="M180 91c35-42 88-19 84 29-3 31-42 50-84 83-42-33-81-52-84-83-4-48 49-71 84-29Z"/>
    <path d="M180 101c-17 16-29 36-26 58 20-4 39-19 48-41M180 101c18 13 30 33 29 55-20-1-40-13-55-30"/>
    <path d="M180 203c1 57-10 89-31 119M178 253c-26-16-49-11-66 3M180 276c29-18 52-12 68 4"/>
    <circle cx="180" cy="180" r="126"/><circle cx="180" cy="180" r="139"/>
  </g>
</svg>
